<?xml version="1.0" encoding="iso-8859-1"?>
<!-- Generator: Adobe Illustrator 23.0.5, SVG Export Plug-In . SVG Version: 6.00 Build 0)  -->
<svg version="1.1" xmlns="http://www.w3.org/2000/svg" xmlns:xlink="http://www.w3.org/1999/xlink" x="0px" y="0px"
	 viewBox="0 0 492 492" style="enable-background:new 0 0 492 492;" xml:space="preserve">
<g id="Master_Layer_2">
</g>
<g id="Layer_1">
	<g>
		<g>
			<g>
				<g>
					<g>
						<g>
							<g>
								<path style="fill-rule:evenodd;clip-rule:evenodd;fill:#212121;" d="M224.204,233.493c-16.872,0-28.8-11.064-40.344-21.744
									c-10.152-9.432-20.664-19.152-35.16-22.704c-3.096-0.744-4.992-3.864-4.224-6.96c0.744-3.096,3.864-4.992,6.96-4.224
									c17.4,4.248,29.544,15.504,40.272,25.44c10.8,10.032,20.16,18.672,32.52,18.672h0.024c5.256,0,11.472-2.616,18.696-5.64
									c11.112-4.656,24.912-10.44,41.544-8.76c6.84,0.696,15.288-0.264,18.504-5.064c1.92-2.856,0.984-5.928-0.12-7.992
									c-2.136-4.008-6.792-7.704-13.104-10.416c-8.016-3.456-18.576-5.28-30.6-5.28c-0.072,0-0.168,0-0.24,0
									c-3.168,0-5.76-2.568-5.76-5.76s2.568-5.76,5.76-5.76c0.096,0,0.168,0,0.264,0c13.752,0,25.584,2.088,35.16,6.216
									c8.808,3.792,15.288,9.168,18.696,15.576c3.624,6.768,3.456,13.992-0.48,19.848c-5.208,7.776-15.864,11.448-29.232,10.104
									c-13.704-1.392-25.512,3.552-35.928,7.92c-8.016,3.36-15.576,6.528-23.136,6.528
									C224.228,233.493,224.228,233.493,224.204,233.493z"/>
							</g>
						</g>
						<g>
							<g>
								<path style="fill-rule:evenodd;clip-rule:evenodd;fill:#212121;" d="M389.828,216.189c-4.2,0-9.408-0.84-15.864-3.024
									c-0.936-0.312-2.664-1.056-6.792-2.856c-17.016-7.44-68.832-30.072-97.296-30.984c-3.168-0.096-5.664-2.76-5.568-5.952
									c0.096-3.168,2.76-5.664,5.952-5.568c30.672,0.984,82.152,23.472,101.52,31.944c2.712,1.176,5.28,2.304,5.856,2.52
									c10.872,3.672,16.152,2.376,17.592,1.056c1.416-1.32,0.72-4.68,0.36-6.048c-1.32-4.92-12.312-16.368-38.976-32.52
									c-20.16-12.216-42.552-22.824-53.256-25.2c-0.96-0.216-1.944-0.432-2.952-0.672c-14.976-3.408-33.624-7.656-60.096-1.584
									c-8.16,1.872-15.408,1.656-22.8-0.696c-8.28-2.64-16.848-7.896-26.976-16.584c-2.424-2.064-2.688-5.712-0.624-8.112
									c2.064-2.424,5.712-2.688,8.112-0.624c18.288,15.696,28.752,17.304,39.672,14.784c29.04-6.672,49.104-2.112,65.232,1.56
									c0.984,0.216,1.968,0.456,2.904,0.672c11.928,2.688,35.256,13.608,56.688,26.592c11.256,6.816,21.048,13.632,28.32,19.704
									c9.168,7.656,14.328,14.112,15.84,19.704c0.912,3.432,1.128,6.6,0.624,9.408c-0.552,3.144-2.016,5.928-4.224,7.992
									C400.628,214.053,396.524,216.189,389.828,216.189z"/>
							</g>
						</g>
					</g>
					<g>
						<g>
							<path style="fill-rule:evenodd;clip-rule:evenodd;fill:#212121;" d="M139.94,204.741c-1.08,0-2.16-0.312-3.144-0.936
								l-49.224-32.016c-1.272-0.84-2.184-2.136-2.496-3.624c-0.312-1.488-0.024-3.048,0.816-4.344l64.272-98.784
								c0.84-1.272,2.136-2.184,3.624-2.496c1.488-0.312,3.048-0.024,4.344,0.816l49.224,32.016c2.664,1.728,3.432,5.304,1.68,7.968
								l-64.273,98.784C143.66,203.829,141.812,204.741,139.94,204.741L139.94,204.741z M98.684,165.261l39.552,25.752
								l57.984-89.112L156.692,76.15L98.684,165.261z"/>
						</g>
					</g>
				</g>
				<g>
					<g>
						<g>
							<path style="fill-rule:evenodd;clip-rule:evenodd;fill:#212121;" d="M268.868,431.061c-6.984,0-13.848-2.256-19.728-6.648
								c-9.504-7.128-14.328-18.384-12.912-30.144c0.72-5.976,2.664-11.76,5.784-17.16l14.4-24.912l0,0
								c6.792-11.76,18.96-18.768,32.52-18.768l0,0c13.584,0,25.728,7.032,32.52,18.768l14.4,24.912
								c3.12,5.4,5.064,11.16,5.784,17.16c1.416,11.76-3.408,23.016-12.912,30.144c-9.552,7.152-21.816,8.64-32.784,3.936
								c-4.464-1.92-9.576-1.92-14.04,0C277.7,430.173,273.26,431.061,268.868,431.061L268.868,431.061z M288.956,415.413
								c3.936,0,7.896,0.792,11.568,2.352c7.128,3.048,15.12,2.088,21.336-2.568c6.168-4.608,9.288-11.928,8.376-19.536
								c-0.528-4.44-1.992-8.736-4.32-12.768l-14.4-24.912c-4.704-8.16-13.128-13.008-22.56-13.008
								c-9.408,0-17.832,4.872-22.56,13.008l-14.4,24.912c-2.328,4.056-3.792,8.352-4.32,12.768
								c-0.912,7.608,2.208,14.928,8.376,19.536c6.216,4.656,14.208,5.616,21.336,2.568
								C281.06,416.205,285.02,415.413,288.956,415.413z"/>
						</g>
					</g>
					<g>
						<g>
							<g>
								<g>
									<path style="fill-rule:evenodd;clip-rule:evenodd;fill:#212121;" d="M221.732,362.229c-4.368,0-8.904-1.536-13.008-4.464
										c-5.52-3.936-9.96-10.104-12.504-17.328c-2.544-7.224-2.952-14.808-1.152-21.336c1.992-7.176,6.576-12.504,12.6-14.616
										c6.024-2.136,12.936-0.864,18.984,3.456c5.52,3.936,9.96,10.104,12.504,17.328c2.544,7.224,2.952,14.808,1.152,21.336
										c-1.992,7.176-6.576,12.504-12.6,14.616C225.788,361.893,223.772,362.229,221.732,362.229L221.732,362.229z
										 M213.692,314.949c-0.72,0-1.464,0.12-2.184,0.36c-3.312,1.176-4.776,4.776-5.352,6.84
										c-1.176,4.224-0.84,9.48,0.912,14.424c1.752,4.944,4.8,9.264,8.352,11.808c1.728,1.248,5.136,3.144,8.448,1.968
										c3.312-1.176,4.776-4.776,5.352-6.84c1.176-4.224,0.84-9.48-0.912-14.424s-4.8-9.264-8.352-11.808
										C218.612,316.317,216.236,314.949,213.692,314.949z"/>
								</g>
							</g>
							<g>
								<g>
									<path style="fill-rule:evenodd;clip-rule:evenodd;fill:#212121;" d="M264.332,322.533c-4.368,0-8.904-1.536-13.008-4.464
										c-5.52-3.936-9.96-10.104-12.504-17.328c-2.544-7.224-2.952-14.808-1.152-21.336c1.992-7.176,6.576-12.504,12.6-14.616
										c6.024-2.136,12.936-0.864,18.984,3.456c5.52,3.936,9.96,10.104,12.504,17.328l0,0c2.544,7.224,2.952,14.808,1.152,21.336
										c-1.992,7.176-6.576,12.504-12.6,14.616C268.388,322.197,266.372,322.533,264.332,322.533L264.332,322.533z
										 M256.268,275.253c-0.72,0-1.464,0.12-2.184,0.36c-3.312,1.176-4.776,4.776-5.352,6.84
										c-1.176,4.224-0.84,9.48,0.912,14.424c1.752,4.944,4.8,9.264,8.352,11.808c1.728,1.248,5.136,3.144,8.448,1.968
										c3.312-1.176,4.776-4.776,5.352-6.84c1.176-4.224,0.84-9.48-0.912-14.424l0,0c-1.752-4.944-4.8-9.264-8.352-11.808
										C261.188,276.621,258.836,275.253,256.268,275.253z"/>
								</g>
							</g>
						</g>
						<g>
							<g>
								<g>
									<path style="fill-rule:evenodd;clip-rule:evenodd;fill:#212121;" d="M356.18,362.229c-2.04,0-4.056-0.336-5.976-1.008
										c-6.024-2.136-10.608-7.464-12.6-14.616c-1.824-6.528-1.416-14.112,1.152-21.336l0,0
										c2.544-7.224,7.008-13.392,12.504-17.328c6.048-4.32,12.96-5.592,18.984-3.456c6.024,2.136,10.608,7.464,12.6,14.616
										c1.824,6.528,1.416,14.112-1.152,21.336c-2.544,7.224-7.008,13.392-12.504,17.328
										C365.06,360.693,360.548,362.229,356.18,362.229L356.18,362.229z M349.604,329.085c-1.752,4.944-2.088,10.224-0.912,14.424
										c0.576,2.04,2.016,5.664,5.352,6.84c3.312,1.176,6.72-0.72,8.448-1.968c3.552-2.544,6.6-6.84,8.352-11.808
										c1.752-4.944,2.088-10.224,0.912-14.424c-0.576-2.04-2.016-5.664-5.352-6.84c-3.312-1.176-6.72,0.72-8.448,1.968
										C354.404,319.821,351.356,324.141,349.604,329.085L349.604,329.085z"/>
								</g>
							</g>
							<g>
								<g>
									<path style="fill-rule:evenodd;clip-rule:evenodd;fill:#212121;" d="M313.58,322.533c-2.04,0-4.056-0.336-5.976-1.008
										c-6.024-2.136-10.608-7.464-12.6-14.616c-1.824-6.528-1.416-14.112,1.152-21.336c2.544-7.224,7.008-13.392,12.504-17.328
										c6.048-4.32,12.96-5.592,18.984-3.456s10.608,7.464,12.6,14.616c1.824,6.528,1.416,14.112-1.152,21.336
										c-2.544,7.224-7.008,13.392-12.504,17.328C322.484,320.997,317.948,322.533,313.58,322.533L313.58,322.533z
										 M307.028,289.389c-1.752,4.944-2.088,10.224-0.912,14.424c0.576,2.04,2.016,5.664,5.352,6.84
										c3.312,1.176,6.72-0.72,8.448-1.968c3.552-2.544,6.6-6.84,8.352-11.808c1.752-4.944,2.088-10.224,0.912-14.424
										c-0.576-2.04-2.016-5.664-5.352-6.84c-3.312-1.176-6.72,0.72-8.448,1.968C311.804,280.125,308.78,284.421,307.028,289.389
										L307.028,289.389z"/>
								</g>
							</g>
						</g>
					</g>
				</g>
			</g>
		</g>
	</g>
</g>
</svg>
